<svg width="135" height="89" viewBox="0 0 135 89" fill="none" xmlns="http://www.w3.org/2000/svg">
<path d="M14.5133 74.1321C14.2255 73.863 13.8418 73.6746 13.3073 73.4862C11.7313 72.948 8.88069 72.5308 4.68704 72.181C4.24849 72.0464 3.96069 71.8581 3.78253 71.6293C3.59066 71.4006 3.49473 71.1314 3.49473 70.7547C3.50843 70.1492 3.74141 69.7186 4.37183 69.3149C4.98854 68.9247 6.0027 68.6287 7.38687 68.4807H8.57919C10.1141 68.4807 11.2105 68.844 11.978 69.5033C12.1835 69.9608 12.4028 70.3106 12.6632 70.5932C12.9373 70.8758 13.2799 71.0776 13.6774 71.0776H14.0063C14.3763 71.0776 14.7326 70.9565 15.0204 70.7412C15.3082 70.5125 15.5001 70.1895 15.6371 69.8262L15.6645 69.759V69.3553V69.2745L15.6371 69.1938C15.1438 67.9155 14.2804 66.9198 13.088 66.2874C11.8957 65.6415 10.3882 65.3455 8.59289 65.3455H6.67423H6.63311C4.53629 65.7222 2.91913 66.3277 1.80904 67.2158C0.685253 68.0904 0.0959485 69.288 0.0959485 70.6605C0.0959485 71.4813 0.232996 72.2079 0.520796 72.8269C0.794891 73.4189 1.23344 73.9033 1.79534 74.2397C2.17907 74.6838 2.79578 74.9394 3.7003 75.1951C4.65963 75.4642 5.93417 75.6795 7.56504 75.8544H7.59245H7.61986C9.42888 75.8544 10.7719 76.0159 11.6079 76.3119C12.0191 76.4599 12.3069 76.6349 12.4713 76.8098C12.6358 76.9847 12.6906 77.1462 12.7043 77.3749V78.1284C12.348 78.8012 11.8546 79.2991 11.2105 79.649C10.539 79.9988 9.67557 80.1872 8.6066 80.1872H7.61986C5.93417 80.1872 4.61852 79.7701 3.57695 78.9627C3.38509 78.411 3.17952 77.967 2.90542 77.644C2.61762 77.2942 2.22018 77.0385 1.76793 77.0385H1.74052H1.71311C1.21974 77.1058 0.808595 77.2404 0.493386 77.496C0.178177 77.7517 1.52588e-05 78.1554 1.52588e-05 78.559V78.6532C0.01372 79.0031 0.123358 79.4202 0.356339 80.093L0.370043 80.1468L0.397453 80.1872C1.0964 81.2367 2.09684 82.0306 3.38509 82.5419C4.67333 83.0533 6.22197 83.3089 8.05841 83.3089H8.27768C9.52482 83.3089 10.7171 83.1205 11.8409 82.7438C13.2114 82.2863 14.2804 81.6808 15.0067 80.8734C15.7468 80.0795 16.1168 79.0973 16.1168 77.9939V77.3346C16.0757 76.1504 15.5275 75.0336 14.5133 74.1321Z" fill="white"/>
<path d="M20.7216 61.1071C20.4475 60.8649 20.0775 60.7438 19.6663 60.6899H19.6389H19.3785H19.3511H19.3237C18.9126 60.7438 18.5425 60.8649 18.2684 61.1071C17.9806 61.3493 17.8436 61.7126 17.8436 62.0759V81.8155C17.8436 82.1788 17.9806 82.5556 18.241 82.8113C18.5014 83.0669 18.8577 83.2284 19.2826 83.3226L19.3511 83.336H19.4196C19.913 83.2957 20.3378 83.188 20.6668 82.9189C20.9957 82.6632 21.1601 82.2461 21.1601 81.829V62.0759C21.1601 61.7126 21.0094 61.3493 20.7216 61.1071Z" fill="white"/>
<path d="M40.3605 70.9294L40.3468 70.8891C39.4286 69.1129 38.3185 67.7404 37.0028 66.8254C35.6735 65.9104 34.1385 65.4395 32.4391 65.4395H31.1098C30.726 65.4395 30.123 65.5202 29.2733 65.6547L29.2322 65.6682L29.1911 65.6817C27.108 66.4755 25.5182 67.552 24.4493 68.9514C23.3803 70.3508 22.8458 72.0597 22.8458 73.9973V74.7509C22.8458 75.6928 22.9554 76.4598 23.2021 77.0653C23.8737 79.1105 24.9152 80.6849 26.3405 81.7344C27.7658 82.7974 29.5748 83.3088 31.6854 83.3088H32.2336H32.2473H32.261C34.1111 83.1607 35.5775 82.8513 36.6602 82.3265C37.7429 81.8152 38.4829 81.0347 38.7159 80.0525L38.7296 79.9986V79.9448C38.7296 79.5815 38.5926 79.2047 38.3322 78.9491C38.0718 78.6934 37.7155 78.5319 37.2906 78.4378L37.2084 78.4243L36.5506 78.5319L36.4409 78.5454L36.345 78.6127C35.0567 79.6353 33.6314 80.1466 32.0006 80.1466H31.4387C30.9042 80.1466 30.219 80.0121 29.4241 79.743C28.3277 79.1375 27.5328 78.4916 27.012 77.8322C26.6009 77.3075 26.3679 76.7827 26.2857 76.2445H39.0996H39.127C39.6478 76.1772 40.0864 76.0292 40.429 75.7466C40.7716 75.4775 40.9498 75.0469 40.9361 74.6163C40.9361 73.4322 40.7442 72.2077 40.3742 70.916L40.3605 70.9294ZM26.3405 72.6114C26.8065 71.2254 27.4917 70.2297 28.3825 69.5838C29.2733 68.9245 30.3834 68.5881 31.7813 68.5881C32.5625 68.5881 33.2477 68.6958 33.837 68.8841C35.139 69.4762 36.0983 70.1894 36.715 70.9967C37.2495 71.6964 37.551 72.4768 37.6332 73.3649H26.2035C26.2172 73.1631 26.2583 72.9074 26.3405 72.6114Z" fill="white"/>
<path d="M59.5746 70.9294L59.5609 70.8891C58.6564 69.1129 57.5326 67.7404 56.2169 66.8254C54.8876 65.9104 53.3526 65.4395 51.6532 65.4395H50.3239C49.9264 65.4395 49.3371 65.5202 48.4874 65.6547L48.4463 65.6682L48.4052 65.6817C46.3221 66.4755 44.7323 67.552 43.6634 68.9514C42.5944 70.3508 42.0599 72.0597 42.0599 73.9973V74.7509C42.0599 75.6928 42.1695 76.4598 42.4162 77.0653C43.0878 79.1105 44.1293 80.6849 45.5546 81.7344C46.9799 82.7974 48.7889 83.3088 50.8995 83.3088H51.4477H51.4614H51.4751C53.3252 83.1607 54.7916 82.8513 55.8743 82.3265C56.957 81.8152 57.697 81.0347 57.93 80.0525L57.9437 79.9986V79.9448C57.9437 79.5815 57.8067 79.2047 57.5463 78.9491C57.2859 78.6934 56.9296 78.5319 56.5047 78.4378L56.4225 78.4243L55.7647 78.5319L55.655 78.5454L55.5591 78.6127C54.2708 79.6353 52.8455 80.1466 51.2147 80.1466H50.6528C50.1183 80.1466 49.4331 80.0121 48.6382 79.743C47.5418 79.1375 46.7469 78.4916 46.2262 77.8322C45.815 77.3075 45.582 76.7827 45.4998 76.2445H58.3137H58.3412C58.8619 76.1772 59.3005 76.0292 59.6431 75.7466C59.9857 75.4775 60.1639 75.0469 60.1639 74.6163C60.1639 73.4322 59.972 72.2077 59.602 70.916L59.5746 70.9294ZM45.5409 72.6114C46.0069 71.2389 46.6921 70.2432 47.5829 69.5838C48.4737 68.9245 49.5838 68.5881 50.9817 68.5881C51.7629 68.5881 52.4481 68.6958 53.0374 68.8841C54.3394 69.4762 55.2987 70.1894 55.9154 70.9967C56.4499 71.6964 56.7514 72.4768 56.8336 73.3649H45.4039C45.4176 73.1631 45.4724 72.9074 45.5409 72.6114Z" fill="white"/>
<path d="M78.213 70.0148L78.1993 69.9879C76.2944 66.8796 73.7727 65.238 70.7576 65.238H69.6476C67.9071 65.2245 66.3995 65.9242 65.2346 67.2294V66.745C65.2346 66.3952 65.1113 66.0588 64.8509 65.8031C64.6042 65.5609 64.2616 65.4129 63.8779 65.3322L63.8368 65.3187H63.7956C63.2474 65.3187 62.7541 65.4533 62.4115 65.8031C62.0688 66.153 61.9318 66.6374 61.9318 67.1756V87.0363V87.0497C61.9729 87.5341 62.0962 87.9378 62.3703 88.2607C62.6307 88.5837 63.0556 88.7452 63.4804 88.7452H63.8093C64.2068 88.7452 64.6042 88.624 64.8783 88.3549C65.1524 88.0858 65.3032 87.7091 65.358 87.2919V87.265V81.4791C66.5914 82.7035 68.236 83.3225 70.2095 83.3225H70.2232H70.2369C71.4155 83.2552 72.4844 83.0668 73.4438 82.7574H73.4575L73.4712 82.7439C75.3762 81.9365 76.8288 80.8332 77.8019 79.4338C78.7749 78.0344 79.2546 76.3524 79.2546 74.4282C79.2546 73.0827 78.912 71.616 78.2404 70.0282L78.213 70.0148ZM69.7983 80.0797C68.2497 79.7836 67.1396 79.2454 66.4269 78.5053C65.7006 77.7653 65.3443 76.8099 65.3306 75.5316V73.2441C65.3306 72.8136 65.358 72.383 65.4265 71.9389C65.8376 70.7145 66.4407 69.8398 67.2355 69.2612C68.0304 68.6826 69.0308 68.3732 70.278 68.3732L71.1962 68.4808C72.7722 68.9652 73.9097 69.7053 74.6772 70.6741C75.431 71.6429 75.8284 72.8808 75.8284 74.4282C75.7599 75.0741 75.6914 75.6124 75.5954 76.016C75.5132 76.4197 75.4036 76.7157 75.3213 76.8234L75.3076 76.8368L75.2939 76.8503C74.7457 77.9537 74.0468 78.7475 73.2108 79.2723C72.3748 79.7971 71.3744 80.0662 70.1683 80.0662H69.7983V80.0797Z" fill="white"/>
<path d="M95.8647 74.1321C95.5769 73.863 95.1795 73.6611 94.6587 73.4862C93.0826 72.948 90.232 72.5308 86.0247 72.181C85.5861 72.0464 85.2983 71.8581 85.1202 71.6293C84.9283 71.4006 84.8324 71.1314 84.8324 70.7547C84.8461 70.1492 85.079 69.7186 85.7095 69.3149C86.3262 68.9247 87.3403 68.6287 88.7245 68.4807H89.9168C91.4518 68.4807 92.5481 68.844 93.3156 69.5033C93.5212 69.9608 93.7405 70.3106 94.0008 70.5932C94.2749 70.8758 94.6176 71.0776 95.015 71.0776H95.3439C95.7139 71.0776 96.0703 70.9565 96.3581 70.7412C96.6459 70.5125 96.8377 70.1895 96.9748 69.8262L97.0022 69.759V69.3553V69.2745L96.9748 69.1938C96.4814 67.9155 95.618 66.9198 94.4257 66.2874C93.2334 65.6415 91.7259 65.3455 89.9305 65.3455H88.0119H87.9708C85.8739 65.7222 84.2568 66.3277 83.1467 67.2158C82.0229 68.0904 81.4336 69.288 81.4336 70.6605C81.4336 71.4813 81.5706 72.2079 81.8584 72.8269C82.1462 73.4189 82.5711 73.9033 83.133 74.2397C83.5167 74.6838 84.1334 74.9394 85.0379 75.1951C85.9973 75.4642 87.2718 75.6795 88.9027 75.8544H88.9301H88.9575C90.7665 75.8544 92.1096 76.0159 92.9456 76.3119C93.3567 76.4599 93.6445 76.6349 93.809 76.8098C93.9734 76.9847 94.0283 77.1462 94.042 77.3749V78.1284C93.6856 78.8012 93.1923 79.2991 92.5481 79.649C91.8766 79.9988 91.0132 80.1872 89.9442 80.1872H88.9575C87.2718 80.1872 85.9562 79.7701 84.9146 78.9627C84.7227 78.411 84.5172 77.967 84.2431 77.644C83.9553 77.2942 83.5578 77.0385 83.1056 77.0385H83.0782H83.0507C82.5574 77.1058 82.1462 77.2404 81.831 77.496C81.5158 77.7517 81.3376 78.1554 81.3376 78.559V78.6532C81.3514 79.0031 81.4747 79.4202 81.694 80.093L81.7077 80.1468L81.7351 80.1872C82.434 81.2367 83.4345 82.0306 84.7227 82.5419C86.011 83.0533 87.5596 83.3089 89.3823 83.3089H89.6016C90.8487 83.3089 92.0411 83.1205 93.1648 82.7438C94.5353 82.2863 95.6043 81.6808 96.3307 80.8734C97.0707 80.0795 97.4407 79.0973 97.4407 77.9939V77.3346C97.427 76.1504 96.8788 75.0336 95.8647 74.1321Z" fill="white"/>
<path d="M108.679 79.6888L108.583 79.6484H108.364H108.295L108.226 79.6753C107.116 80.0252 106.294 80.1866 105.856 80.1866C105.595 80.1597 105.403 80.1328 105.28 80.1059V79.8637H104.841C104.745 79.8637 104.704 79.8502 104.595 79.7291C104.444 79.5677 104.252 79.1371 104.142 78.4777C104.019 77.8184 103.964 76.9438 103.964 75.8404V68.5608H107.199H107.226C107.651 68.507 108.007 68.3859 108.295 68.1437C108.583 67.9015 108.734 67.5382 108.72 67.1749V66.9596C108.72 66.5963 108.583 66.2195 108.295 65.9773C108.021 65.7351 107.651 65.614 107.226 65.5467H107.199H103.964V62.0752C103.964 61.6984 103.8 61.3216 103.512 61.0794C103.224 60.8238 102.854 60.6758 102.402 60.5816L102.361 60.5681H102.306C101.881 60.5681 101.484 60.7027 101.196 60.9987C100.908 61.2813 100.744 61.6715 100.661 62.129V62.1694V65.5602H98.8935C98.4961 65.5602 98.0987 65.6813 97.8246 65.9639C97.5505 66.233 97.4134 66.6098 97.3586 67.0269V67.0538V67.2018C97.3586 67.5651 97.4956 67.9284 97.7834 68.1706C98.0575 68.4128 98.4276 68.5339 98.8387 68.5877H98.8661H100.661V77.1456C100.661 78.0068 100.771 78.9218 101.004 79.8637V79.8906L101.018 79.9175C101.456 81.0209 102.087 81.8821 102.923 82.4606C103.759 83.0392 104.787 83.3218 105.951 83.3218H106.184H106.198H106.212C107.308 83.2411 108.158 83.0662 108.788 82.7163C109.104 82.5548 109.364 82.3395 109.542 82.0704C109.72 81.8013 109.816 81.4784 109.816 81.1554C109.816 80.8325 109.707 80.523 109.501 80.2808C109.282 80.0386 109.008 79.8502 108.679 79.6888Z" fill="white"/>
<path d="M114.599 66.0045C114.284 65.7488 113.873 65.6681 113.407 65.6546C112.872 65.6412 112.365 65.8565 112.05 66.2602C111.749 66.6638 111.625 67.1886 111.625 67.821V81.1558C111.625 81.7882 111.735 82.313 112.05 82.7166C112.352 83.1203 112.872 83.3356 113.407 83.3221C113.873 83.3221 114.27 83.2414 114.599 82.9857C114.928 82.7301 115.079 82.3264 115.065 81.9227V67.0675C115.065 66.6638 114.928 66.2602 114.599 66.0045Z" fill="white"/>
<path d="M114.64 61.0531C114.339 60.7167 113.886 60.5552 113.407 60.5686C112.941 60.5686 112.489 60.7301 112.173 61.0531C111.872 61.376 111.707 61.82 111.639 62.3448V62.3717V63.4886V63.502V63.5155C111.68 63.9999 111.803 64.4035 112.077 64.7265C112.338 65.0494 112.763 65.2109 113.188 65.2109H113.64C114.065 65.2109 114.49 65.0494 114.75 64.7265C115.024 64.4035 115.134 63.9999 115.175 63.5155V63.502V62.3852V62.3583V62.3314C115.093 61.8335 114.942 61.3895 114.64 61.0531Z" fill="white"/>
<path d="M133.608 65.9641C133.333 65.695 132.95 65.5469 132.525 65.4931H132.497H132.127C131.757 65.4931 131.401 65.6142 131.141 65.8699C130.88 66.1255 130.757 66.4619 130.702 66.8522V66.8791V67.2827C129.496 65.9641 127.879 65.2778 125.96 65.2778H125.727C124.946 65.2778 124.11 65.3855 123.192 65.6142H123.165L123.137 65.6277C121.054 66.4216 119.464 67.5249 118.395 68.9378C117.326 70.3507 116.792 72.073 116.792 74.051V74.818C116.792 75.7733 116.943 76.7018 117.271 77.5629V77.5764V77.5899C118.066 79.4871 119.149 80.9538 120.533 81.9226C121.917 82.9049 123.589 83.3893 125.508 83.3893C127.564 83.3893 129.291 82.8242 130.593 81.667V87.278C130.593 87.7086 130.757 88.1123 131.072 88.3948C131.387 88.6774 131.812 88.8254 132.306 88.9062H132.333H132.36C132.772 88.9062 133.183 88.7716 133.471 88.4756C133.758 88.193 133.923 87.8028 134.005 87.3587L134.019 87.3184V67.0271C134.032 66.6234 133.895 66.2466 133.608 65.9641ZM125.81 80.1465H125.659C123.781 79.9043 122.424 79.3257 121.547 78.4779C120.67 77.6302 120.218 76.473 120.218 74.9256V74.0644C120.218 73.7684 120.245 73.432 120.314 73.0822C120.794 71.5213 121.479 70.391 122.329 69.651C123.192 68.9109 124.22 68.5476 125.522 68.5341H125.947C127.564 68.736 128.729 69.2204 129.469 69.947C130.222 70.6736 130.593 71.6424 130.606 72.988V75.6926C130.606 77.0247 130.209 77.9935 129.441 78.7201C128.674 79.4333 127.482 79.9312 125.81 80.1465Z" fill="white"/>
<path d="M78.1171 52.1679C74.2113 49.8131 70.6069 46.059 67.8523 41.5109C65.2484 37.232 63.4394 32.2399 62.7678 27.1133H69.7573C69.7435 27.3959 69.7436 27.6784 69.7436 27.961C69.7436 33.2356 71.2648 39.4387 73.9509 44.9152C75.294 47.6468 76.9385 50.2033 78.8435 52.3428C78.9943 52.5043 79.145 52.6658 79.2958 52.8272C78.8983 52.6119 78.5009 52.3966 78.1171 52.1679Z" fill="#8FE2FF"/>
<path d="M80.6662 50.6474C78.076 47.7545 75.9381 43.8792 74.4717 39.829C73.0053 35.7788 72.2104 31.5403 72.2104 27.9476C72.2104 27.6515 72.2378 27.3824 72.2515 27.0999H79.5561C78.8846 30.1543 78.5831 33.0608 78.5831 35.8192C78.5831 42.1703 80.214 47.7141 82.6397 52.5851C81.9545 52.0065 81.2966 51.3606 80.6662 50.6474Z" fill="#8FE2FF"/>
<path d="M52.2152 27.0999H60.2599C61.1644 34.6889 64.4398 41.8877 68.9624 47.3777C70.7851 49.5845 72.8134 51.5221 74.9925 53.083C70.141 51.4413 65.9885 48.7636 62.576 45.467C57.2174 40.3 53.6953 33.5855 52.2152 27.0999Z" fill="#8FE2FF"/>
<path d="M47.0896 24.0317C46.9388 23.1167 46.8566 22.1883 46.8566 21.2329C46.8566 20.6678 46.884 20.1026 46.9388 19.5375L46.98 19.0127L46.4455 19.0531C45.0202 19.1742 43.8005 19.5106 42.7726 19.995L42.9645 20.3986L42.7726 19.995C41.4843 20.587 40.4839 21.3809 39.7027 22.2017C39.1545 22.7669 38.7297 23.3455 38.4008 23.8568L37.9622 24.543H47.1855L47.0896 24.0317Z" fill="#FC5959"/>
<path d="M48.4464 29.7777C48.1312 28.7416 47.8571 27.7055 47.6378 26.6694L47.5556 26.3196H41.0321L41.6214 27.0462C42.3341 27.9208 43.3756 28.8896 44.8694 29.5624C45.7465 29.9526 46.7744 30.2352 47.9804 30.3428L48.6519 30.3967L48.4464 29.7777Z" fill="#FC5959"/>
<path d="M53.1196 14.4243C54.1748 14.8011 55.2301 14.9895 56.2443 14.9895C57.8477 14.9895 59.3826 14.5185 60.7394 13.6708C61.3698 13.2806 61.5617 12.4598 61.1643 11.8274C60.7668 11.2084 59.9308 11.02 59.2867 11.4102C58.3 12.0158 57.3132 12.3118 56.2443 12.3118C55.559 12.3118 54.8327 12.1907 54.0378 11.9081C53.3252 11.6524 52.5577 12.0158 52.2973 12.7155C52.0506 13.4152 52.4069 14.1821 53.1196 14.4243Z" fill="#12305B"/>
<path d="M104.129 33.6663C104.088 33.451 103.882 33.3165 103.663 33.3569L97.2353 34.5275L98.5235 29.6027L98.085 29.4547L95.7688 34.7966L93.905 35.133C93.7542 35.1599 93.6172 35.2407 93.5213 35.3618L93.5076 35.3752L90.2869 39.2505H81.1596C80.9677 37.7838 80.8718 36.2768 80.8718 34.7159C80.8718 31.5134 81.2966 28.0957 82.256 24.4222C82.6534 22.8748 82.6808 21.3947 82.8316 20.0087C82.9001 19.3494 82.9412 18.6901 82.9412 18.0307C82.9412 12.9983 80.8855 8.47714 77.5004 5.2343C74.1291 1.978 69.442 0 64.2068 0C58.6016 0 53.8734 2.48932 50.6391 6.21657C48.3641 8.82699 46.8018 12.0295 46.0617 15.4338C44.0197 15.5145 42.2655 15.9855 40.8128 16.6852C38.4008 17.8424 36.811 19.5781 35.838 21.0045C34.865 22.4308 34.4675 23.5611 34.4401 23.6418L33.8508 25.391H37.8663C38.2226 26.0369 38.8256 26.9654 39.7713 27.9207C40.5935 28.755 41.6899 29.5892 43.0741 30.2082C44.4583 30.8272 46.144 31.2443 48.1037 31.2443C49.159 33.9758 50.5295 36.667 52.2152 39.237H26.8066C26.0665 39.237 25.4498 39.8291 25.4498 40.5692C25.4498 41.2958 26.0528 41.9013 26.8066 41.9013H54.1201C55.4906 43.6774 57.0118 45.3594 58.6838 46.9337C65.4814 53.2983 74.8691 57.6849 86.4085 57.6849C86.9019 57.6849 87.3678 57.4158 87.6008 56.9852C87.8338 56.5546 87.8201 56.0298 87.546 55.6262C84.8599 51.5222 82.6945 47.0145 81.6256 41.9013H101.004C101.744 41.9013 102.361 41.3092 102.361 40.5692C102.361 39.8425 101.758 39.237 101.004 39.237H92.1234L94.4669 36.4248L103.841 34.1238C104.033 34.0566 104.17 33.8682 104.129 33.6663ZM37.9348 22.7133C38.25 22.2155 38.6612 21.6638 39.1819 21.1256C39.9357 20.3451 40.895 19.5781 42.1285 19.013C43.1152 18.5555 44.2664 18.2326 45.6506 18.1115C45.5958 18.6901 45.5684 19.2687 45.5684 19.8473C45.5684 20.8161 45.6506 21.7714 45.8013 22.7133H37.9348ZM44.2253 27.7727C42.8137 27.1403 41.827 26.2118 41.1417 25.3776H46.3632C46.5962 26.4271 46.8566 27.4632 47.1855 28.5128C46.0206 28.4186 45.0476 28.1495 44.2253 27.7727ZM48.556 22.7133C48.3778 21.7849 48.2819 20.8295 48.2819 19.8473C48.2819 15.4741 49.8991 11.1414 52.6948 7.93891C55.5043 4.73643 59.4239 2.66424 64.1931 2.65079C68.7157 2.65079 72.7175 4.35967 75.5955 7.1181C78.4735 9.88999 80.214 13.698 80.214 18.0038C80.214 18.5555 80.1866 19.1207 80.118 19.6992C80.0084 20.8026 79.9536 21.8118 79.8165 22.7268H48.9534V22.7133H48.556ZM60.5614 44.9692C54.6546 39.4523 50.7625 32.3073 49.1453 25.391H58.0123C59.0127 33.478 62.6034 41.1343 67.5919 46.9876C69.6065 49.3423 71.8404 51.4011 74.2387 53.0696C68.8938 51.3338 64.3165 48.4811 60.5614 44.9692ZM77.6512 52.1008C73.3479 49.598 69.3735 45.5882 66.3448 40.7441C63.4805 36.1826 61.4796 30.8675 60.7532 25.4045H68.4553C68.4416 25.7005 68.4416 26.01 68.4416 26.306C68.4416 31.9171 70.1136 38.5373 73.0601 44.3637C74.5402 47.2836 76.3492 49.9882 78.4598 52.2757C78.6242 52.4506 78.7887 52.6255 78.9531 52.787C78.5146 52.5852 78.0897 52.3564 77.6512 52.1008ZM80.4606 50.4995C77.5964 47.4181 75.2528 43.2872 73.6357 38.9679C72.0185 34.6486 71.1414 30.1409 71.1414 26.3195C71.1414 26.01 71.1688 25.714 71.1825 25.418H79.2272C78.4872 28.6742 78.1582 31.7691 78.1582 34.7024C78.1582 41.4707 79.9536 47.3778 82.6397 52.5717C81.8859 51.9393 81.1596 51.253 80.4606 50.4995Z" fill="white"/>
<path d="M104.636 35.8999C102.594 36.4112 101.456 35.5635 101.114 34.2583C100.785 32.9531 101.388 31.6883 103.43 31.1904C105.472 30.6925 108.528 32.4552 108.528 32.4552C108.528 32.4552 106.692 35.4021 104.636 35.8999Z" fill="#83CC1B"/>
<path d="M100.881 29.6968C100.045 31.446 98.7565 31.769 97.6053 31.2307C96.4541 30.706 95.8648 29.5219 96.7008 27.7726C97.5368 26.0234 100.62 24.8931 100.62 24.8931C100.62 24.8931 101.717 27.9475 100.881 29.6968Z" fill="#83CC1B"/>
</svg>
