<svg width="92" height="62" viewBox="0 0 92 62" fill="none" xmlns="http://www.w3.org/2000/svg">
<g clip-path="url(#clip0_1_201)">
<path d="M9.98812 51.7414C9.79062 51.5548 9.52728 51.4241 9.16048 51.2934C8.0789 50.92 6.12266 50.6306 3.24472 50.3879C2.94376 50.2946 2.74625 50.1639 2.62399 50.0052C2.49232 49.8465 2.42648 49.6598 2.42648 49.3985C2.43589 48.9784 2.59577 48.6797 3.0284 48.3997C3.45163 48.129 4.1476 47.9236 5.09751 47.8209H5.91575C6.96911 47.8209 7.72151 48.073 8.24819 48.5304C8.38927 48.8477 8.53975 49.0904 8.71844 49.2865C8.90654 49.4825 9.14167 49.6225 9.41442 49.6225H9.64014C9.89407 49.6225 10.1386 49.5385 10.3361 49.3891C10.5336 49.2305 10.6653 49.0064 10.7593 48.7544L10.7781 48.7077V48.4277V48.3717L10.7593 48.3157C10.4208 47.4289 9.82824 46.7381 9.01 46.2994C8.19176 45.8514 7.15721 45.646 5.92515 45.646H4.60845H4.58023C3.14126 45.9074 2.03147 46.3274 1.26966 46.9435C0.49845 47.5502 0.0940334 48.381 0.0940334 49.3331C0.0940334 49.9025 0.188084 50.4066 0.385589 50.836C0.57369 51.2467 0.874651 51.5828 1.26026 51.8161C1.5236 52.1242 1.94682 52.3015 2.56756 52.4789C3.22591 52.6656 4.10058 52.8149 5.21977 52.9363H5.23858H5.25739C6.49886 52.9363 7.42055 53.0483 7.99426 53.2536C8.27641 53.3563 8.47391 53.4777 8.58677 53.599C8.69963 53.7204 8.73726 53.8324 8.74666 53.9911V54.5138C8.50213 54.9805 8.16355 55.3259 7.72151 55.5686C7.26066 55.8113 6.66815 55.942 5.93456 55.942H5.25739C4.10058 55.942 3.19769 55.6526 2.48291 55.0926C2.35124 54.7098 2.21017 54.4018 2.02206 54.1778C1.82456 53.9351 1.55181 53.7577 1.24145 53.7577H1.22264H1.20383C0.865246 53.8044 0.583095 53.8977 0.366779 54.0751C0.150464 54.2524 0.0281982 54.5325 0.0281982 54.8125V54.8779C0.0376033 55.1206 0.112844 55.4099 0.272729 55.8766L0.282134 55.914L0.300944 55.942C0.780601 56.6701 1.46717 57.2208 2.35124 57.5755C3.23531 57.9302 4.29808 58.1076 5.55836 58.1076H5.70884C6.56469 58.1076 7.38293 57.9769 8.15414 57.7156C9.09465 57.3982 9.82824 56.9781 10.3267 56.4181C10.8346 55.8673 11.0885 55.1859 11.0885 54.4205V53.9631C11.0603 53.1416 10.6841 52.3669 9.98812 51.7414Z" fill="#12305B"/>
<path d="M14.2486 42.7056C14.0605 42.5376 13.8066 42.4536 13.5244 42.4163H13.5056H13.3269H13.3081H13.2893C13.0072 42.4536 12.7532 42.5376 12.5651 42.7056C12.3676 42.8737 12.2736 43.1257 12.2736 43.3777V57.0715C12.2736 57.3235 12.3676 57.5849 12.5463 57.7623C12.725 57.9396 12.9695 58.0516 13.2611 58.117L13.3081 58.1263H13.3551C13.6937 58.0983 13.9853 58.0236 14.211 57.8369C14.4367 57.6596 14.5496 57.3702 14.5496 57.0808V43.3777C14.5496 43.1257 14.4461 42.8737 14.2486 42.7056Z" fill="#12305B"/>
<path d="M27.726 49.5199L27.7166 49.4919C27.0864 48.2598 26.3246 47.3076 25.4218 46.6729C24.5095 46.0381 23.4561 45.7114 22.2899 45.7114H21.3776C21.1143 45.7114 20.7004 45.7674 20.1173 45.8608L20.0891 45.8701L20.0609 45.8794C18.6313 46.4302 17.5403 47.1769 16.8067 48.1477C16.0732 49.1185 15.7064 50.304 15.7064 51.6482V52.1709C15.7064 52.8244 15.7816 53.3564 15.9509 53.7765C16.4117 55.1953 17.1265 56.2875 18.1046 57.0156C19.0828 57.753 20.3242 58.1077 21.7726 58.1077H22.1488H22.1582H22.1676C23.4373 58.005 24.4436 57.7903 25.1866 57.4263C25.9296 57.0716 26.4375 56.5302 26.5974 55.8488L26.6068 55.8114V55.7741C26.6068 55.522 26.5127 55.2607 26.334 55.0833C26.1553 54.906 25.9108 54.7939 25.6193 54.7286L25.5628 54.7193L25.1114 54.794L25.0361 54.8033L24.9703 54.85C24.0862 55.5594 23.1081 55.9141 21.9889 55.9141H21.6033C21.2365 55.9141 20.7663 55.8208 20.2208 55.6341C19.4684 55.214 18.9229 54.7659 18.5655 54.3086C18.2833 53.9445 18.1235 53.5805 18.067 53.2071H26.8607H26.8795C27.2369 53.1604 27.5379 53.0577 27.773 52.8617C28.0081 52.675 28.1304 52.3763 28.121 52.0776C28.121 51.2562 27.9893 50.4067 27.7354 49.5106L27.726 49.5199ZM18.1046 50.6867C18.4244 49.7253 18.8947 49.0345 19.506 48.5865C20.1173 48.1291 20.8791 47.8957 21.8384 47.8957C22.3745 47.8957 22.8448 47.9704 23.2492 48.1011C24.1427 48.5118 24.801 49.0065 25.2243 49.5666C25.591 50.052 25.798 50.5934 25.8544 51.2095H18.0106C18.02 51.0695 18.0482 50.8921 18.1046 50.6867Z" fill="#12305B"/>
<path d="M40.9119 49.5199L40.9025 49.4919C40.2818 48.2598 39.5106 47.3076 38.6077 46.6729C37.6954 46.0381 36.642 45.7114 35.4758 45.7114H34.5635C34.2908 45.7114 33.8863 45.7674 33.3032 45.8608L33.275 45.8701L33.2468 45.8794C31.8172 46.4302 30.7263 47.1769 29.9927 48.1477C29.2591 49.1185 28.8923 50.304 28.8923 51.6482V52.1709C28.8923 52.8244 28.9675 53.3564 29.1368 53.7765C29.5976 55.1953 30.3124 56.2875 31.2906 57.0156C32.2687 57.753 33.5101 58.1077 34.9585 58.1077H35.3347H35.3441H35.3535C36.6232 58.005 37.6295 57.7903 38.3725 57.4263C39.1155 57.0716 39.6234 56.5302 39.7833 55.8488L39.7927 55.8114V55.7741C39.7927 55.522 39.6987 55.2607 39.52 55.0833C39.3413 54.906 39.0967 54.7939 38.8052 54.7286L38.7487 54.7193L38.2973 54.794L38.2221 54.8033L38.1562 54.85C37.2722 55.5594 36.294 55.9141 35.1748 55.9141H34.7892C34.4224 55.9141 33.9522 55.8208 33.4067 55.6341C32.6543 55.214 32.1088 54.7659 31.7514 54.3086C31.4693 53.9445 31.3094 53.5805 31.2529 53.2071H40.0466H40.0655C40.4228 53.1604 40.7238 53.0577 40.9589 52.8617C41.1941 52.675 41.3163 52.3763 41.3163 52.0776C41.3163 51.2562 41.1847 50.4067 40.9307 49.5106L40.9119 49.5199ZM31.2812 50.6867C31.6009 49.7346 32.0712 49.0439 32.6825 48.5865C33.2938 48.1291 34.0556 47.8957 35.0149 47.8957C35.551 47.8957 36.0213 47.9704 36.4257 48.1011C37.3192 48.5118 37.9775 49.0065 38.4008 49.5666C38.7676 50.052 38.9745 50.5934 39.0309 51.2095H31.1871C31.1965 51.0695 31.2341 50.8921 31.2812 50.6867Z" fill="#12305B"/>
<path d="M53.7027 48.8852L53.6933 48.8665C52.386 46.7102 50.6555 45.5714 48.5864 45.5714H47.8246C46.6301 45.5621 45.5956 46.0475 44.7962 46.9529V46.6169C44.7962 46.3742 44.7115 46.1408 44.5328 45.9635C44.3635 45.7954 44.1284 45.6928 43.8651 45.6368L43.8368 45.6274H43.8086C43.4324 45.6274 43.0938 45.7208 42.8587 45.9635C42.6236 46.2062 42.5295 46.5422 42.5295 46.9156V60.6933V60.7027C42.5578 61.0387 42.6424 61.3187 42.8305 61.5428C43.0092 61.7668 43.3008 61.8788 43.5923 61.8788H43.818C44.0908 61.8788 44.3635 61.7948 44.5516 61.6081C44.7397 61.4214 44.8432 61.1601 44.8808 60.8707V60.852V56.8382C45.7273 57.6876 46.8559 58.117 48.2102 58.117H48.2196H48.229C49.0378 58.0703 49.7714 57.9397 50.4298 57.725H50.4392L50.4486 57.7156C51.7559 57.1555 52.7528 56.3901 53.4206 55.4193C54.0883 54.4485 54.4175 53.2817 54.4175 51.9469C54.4175 51.0134 54.1824 49.996 53.7215 48.8945L53.7027 48.8852ZM47.928 55.8674C46.8653 55.662 46.1035 55.2886 45.6144 54.7752C45.1159 54.2619 44.8714 53.5991 44.862 52.7123V51.1255C44.862 50.8268 44.8808 50.528 44.9278 50.22C45.21 49.3706 45.6238 48.7638 46.1693 48.3624C46.7148 47.9611 47.4013 47.7464 48.2572 47.7464L48.8873 47.821C49.9689 48.1571 50.7495 48.6705 51.2762 49.3426C51.7935 50.0146 52.0662 50.8734 52.0662 51.9469C52.0192 52.3949 51.9722 52.7683 51.9064 53.0484C51.8499 53.3284 51.7747 53.5338 51.7183 53.6084L51.7088 53.6178L51.6994 53.6271C51.3232 54.3925 50.8436 54.9433 50.2699 55.3073C49.6962 55.6714 49.0096 55.8581 48.182 55.8581H47.928V55.8674Z" fill="#12305B"/>
<path d="M65.8164 51.7414C65.6189 51.5548 65.3461 51.4147 64.9887 51.2934C63.9072 50.92 61.9509 50.6306 59.0636 50.3879C58.7626 50.2946 58.5651 50.1639 58.4428 50.0052C58.3112 49.8465 58.2453 49.6598 58.2453 49.3985C58.2547 48.9784 58.4146 48.6797 58.8473 48.3997C59.2705 48.129 59.9665 47.9236 60.9164 47.8209H61.7346C62.788 47.8209 63.5404 48.073 64.067 48.5304C64.2081 48.8477 64.3586 49.0904 64.5373 49.2865C64.7254 49.4825 64.9605 49.6225 65.2333 49.6225H65.459C65.7129 49.6225 65.9575 49.5385 66.155 49.3891C66.3525 49.2305 66.4841 49.0064 66.5782 48.7544L66.597 48.7077V48.4277V48.3717L66.5782 48.3157C66.2396 47.4289 65.6471 46.7381 64.8288 46.2994C64.0106 45.8514 62.9761 45.646 61.744 45.646H60.4273H60.3991C58.9601 45.9074 57.8503 46.3274 57.0885 46.9435C56.3173 47.5502 55.9129 48.381 55.9129 49.3331C55.9129 49.9025 56.0069 50.4066 56.2044 50.836C56.4019 51.2467 56.6935 51.5828 57.0791 51.8161C57.3424 52.1242 57.7657 52.3015 58.3864 52.4789C59.0448 52.6656 59.9194 52.8149 61.0386 52.9363H61.0574H61.0762C62.3177 52.9363 63.2394 53.0483 63.8131 53.2536C64.0953 53.3563 64.2928 53.4777 64.4056 53.599C64.5185 53.7204 64.5561 53.8324 64.5655 53.9911V54.5138C64.321 54.9805 63.9824 55.3259 63.5404 55.5686C63.0795 55.8113 62.487 55.942 61.7534 55.942H61.0762C59.9194 55.942 59.0165 55.6526 58.3018 55.0926C58.1701 54.7098 58.029 54.4018 57.8409 54.1778C57.6434 53.9351 57.3707 53.7577 57.0603 53.7577H57.0415H57.0227C56.6841 53.8044 56.4019 53.8977 56.1856 54.0751C55.9693 54.2524 55.847 54.5325 55.847 54.8125V54.8779C55.8565 55.1206 55.9411 55.4099 56.0916 55.8766L56.101 55.914L56.1198 55.942C56.5995 56.6701 57.286 57.2208 58.1701 57.5755C59.0542 57.9302 60.1169 58.1076 61.3678 58.1076H61.5183C62.3741 58.1076 63.1924 57.9769 63.9636 57.7156C64.9041 57.3982 65.6377 56.9781 66.1362 56.4181C66.644 55.8673 66.898 55.1859 66.898 54.4205V53.9631C66.8886 53.1416 66.5124 52.3669 65.8164 51.7414Z" fill="#12305B"/>
<path d="M74.6101 55.5966L74.5443 55.5686H74.3938H74.3468L74.2997 55.5873C73.5379 55.83 72.9736 55.942 72.6727 55.942C72.494 55.9234 72.3623 55.9047 72.2777 55.886V55.718H71.9767C71.9109 55.718 71.8826 55.7087 71.8074 55.6247C71.7039 55.5126 71.5723 55.2139 71.497 54.7565C71.4124 54.2991 71.3748 53.6924 71.3748 52.927V47.877H73.5944H73.6132C73.9047 47.8397 74.1493 47.7556 74.3468 47.5876C74.5443 47.4196 74.6477 47.1676 74.6383 46.9155V46.7662C74.6383 46.5141 74.5443 46.2528 74.3468 46.0848C74.1587 45.9167 73.9047 45.8327 73.6132 45.7861H73.5944H71.3748V43.3777C71.3748 43.1164 71.2619 42.855 71.0644 42.687C70.8669 42.5096 70.613 42.407 70.3026 42.3416L70.2744 42.3323H70.2368C69.9452 42.3323 69.6725 42.4256 69.475 42.631C69.2775 42.827 69.1646 43.0977 69.1082 43.4151V43.4431V45.7954H67.8949C67.6222 45.7954 67.3494 45.8794 67.1613 46.0754C66.9732 46.2621 66.8792 46.5235 66.8416 46.8129V46.8315V46.9342C66.8416 47.1862 66.9356 47.4383 67.1331 47.6063C67.3212 47.7743 67.5751 47.8583 67.8573 47.8957H67.8761H69.1082V53.8324C69.1082 54.4298 69.1834 55.0646 69.3433 55.718V55.7367L69.3527 55.7553C69.6537 56.5208 70.0863 57.1182 70.66 57.5196C71.2337 57.921 71.9391 58.117 72.7385 58.117H72.8984H72.9078H72.9172C73.6696 58.061 74.2527 57.9396 74.6853 57.6969C74.9017 57.5849 75.0804 57.4356 75.2026 57.2489C75.3249 57.0622 75.3907 56.8381 75.3907 56.6141C75.3907 56.3901 75.3155 56.1754 75.1744 56.0074C75.0239 55.8393 74.8358 55.7087 74.6101 55.5966Z" fill="#12305B"/>
<path d="M78.673 46.1035C78.4567 45.9261 78.1746 45.8701 77.8548 45.8608C77.488 45.8514 77.14 46.0008 76.9237 46.2808C76.7168 46.5609 76.6322 46.9249 76.6322 47.3636V56.6142C76.6322 57.0529 76.7074 57.417 76.9237 57.697C77.1306 57.977 77.488 58.1264 77.8548 58.1171C78.1746 58.1171 78.4473 58.061 78.673 57.8837C78.8987 57.7063 79.0022 57.4263 78.9928 57.1463V46.8409C78.9928 46.5609 78.8987 46.2808 78.673 46.1035Z" fill="#12305B"/>
<path d="M78.7013 42.6684C78.4944 42.435 78.184 42.323 77.8548 42.3323C77.5351 42.3323 77.2247 42.4443 77.0084 42.6684C76.8015 42.8924 76.6886 43.2004 76.6416 43.5645V43.5832V44.3579V44.3673V44.3766C76.6698 44.7126 76.7545 44.9927 76.9426 45.2167C77.1213 45.4407 77.4128 45.5527 77.7044 45.5527H78.0147C78.3063 45.5527 78.5978 45.4407 78.7765 45.2167C78.9646 44.9927 79.0399 44.7126 79.0681 44.3766V44.3673V43.5925V43.5738V43.5552C79.0117 43.2098 78.9082 42.9017 78.7013 42.6684Z" fill="#12305B"/>
<path d="M91.7179 46.0754C91.5298 45.8887 91.2664 45.7861 90.9749 45.7487H90.9561H90.7021C90.4482 45.7487 90.2037 45.8327 90.025 46.0101C89.8463 46.1874 89.7616 46.4208 89.724 46.6915V46.7102V46.9902C88.8963 46.0754 87.7866 45.5994 86.4698 45.5994H86.31C85.7739 45.5994 85.2002 45.674 84.57 45.8327H84.5512L84.5324 45.8421C83.1028 46.3928 82.0118 47.1582 81.2782 48.1384C80.5447 49.1185 80.1779 50.3133 80.1779 51.6855V52.2176C80.1779 52.8803 80.2813 53.5244 80.507 54.1218V54.1311V54.1405C81.0525 55.4566 81.7955 56.4741 82.7454 57.1462C83.6953 57.8276 84.8428 58.1637 86.1595 58.1637C87.5702 58.1637 88.7553 57.7716 89.6488 56.9688V60.8613C89.6488 61.16 89.7616 61.4401 89.9779 61.6361C90.1943 61.8321 90.4858 61.9348 90.8244 61.9908H90.8432H90.862C91.1442 61.9908 91.4263 61.8975 91.6238 61.6921C91.8213 61.4961 91.9342 61.2254 91.9906 60.9173L92 60.8893V46.8129C92.0094 46.5328 91.9154 46.2715 91.7179 46.0754ZM86.3664 55.914H86.2629C84.9744 55.746 84.0433 55.3446 83.4414 54.7565C82.8395 54.1685 82.5291 53.3657 82.5291 52.2922V51.6948C82.5291 51.4895 82.5479 51.2561 82.595 51.0134C82.9241 49.9306 83.3944 49.1465 83.9775 48.6331C84.57 48.1197 85.2754 47.8677 86.1689 47.8583H86.4604C87.5702 47.9983 88.3697 48.3344 88.8775 48.8385C89.3948 49.3425 89.6488 50.0146 89.6582 50.9481V52.8243C89.6582 53.7484 89.3854 54.4205 88.8587 54.9246C88.332 55.4193 87.5138 55.7647 86.3664 55.914Z" fill="#12305B"/>
<path d="M53.6369 36.19C50.9564 34.5564 48.4829 31.9521 46.5925 28.797C44.8056 25.8286 43.5641 22.3655 43.1032 18.8091H47.8998C47.8904 19.0051 47.8904 19.2011 47.8904 19.3972C47.8904 23.0563 48.9344 27.3595 50.7777 31.1587C51.6994 33.0536 52.828 34.8271 54.1353 36.3113C54.2388 36.4233 54.3423 36.5353 54.4457 36.6474C54.173 36.498 53.9002 36.3486 53.6369 36.19Z" fill="#8FE2FF"/>
<path d="M55.3862 35.1352C53.6087 33.1283 52.1415 30.44 51.1351 27.6303C50.1288 24.8206 49.5833 21.8802 49.5833 19.3879C49.5833 19.1825 49.6021 18.9958 49.6115 18.7998H54.6244C54.1636 20.9187 53.9567 22.935 53.9567 24.8486C53.9567 29.2545 55.0758 33.1003 56.7405 36.4794C56.2703 36.078 55.8188 35.63 55.3862 35.1352Z" fill="#8FE2FF"/>
<path d="M35.8614 18.7998H41.3821C42.0029 24.0645 44.2507 29.0585 47.3543 32.867C48.6052 34.3978 49.9971 35.742 51.4925 36.8248C48.1632 35.686 45.3134 33.8284 42.9716 31.5414C39.2942 27.957 36.8771 23.2991 35.8614 18.7998Z" fill="#8FE2FF"/>
<path d="M32.3439 16.6715C32.2404 16.0367 32.184 15.3927 32.184 14.7299C32.184 14.3378 32.2028 13.9458 32.2404 13.5537L32.2687 13.1897L31.9019 13.2177C30.9237 13.3017 30.0867 13.5351 29.3813 13.8711L29.513 14.1512L29.3813 13.8711C28.4972 14.2818 27.8107 14.8326 27.2746 15.402C26.8984 15.794 26.6068 16.1954 26.3811 16.5501L26.0801 17.0262H32.4097L32.3439 16.6715Z" fill="#FC5959"/>
<path d="M33.275 20.6573C33.0587 19.9385 32.8706 19.2198 32.7201 18.501L32.6637 18.2583H28.1869L28.5913 18.7624C29.0804 19.3691 29.7951 20.0412 30.8203 20.5079C31.4222 20.7786 32.1276 20.9746 32.9552 21.0493L33.4161 21.0866L33.275 20.6573Z" fill="#FC5959"/>
<path d="M36.4821 10.0065C37.2063 10.2679 37.9305 10.3985 38.6265 10.3985C39.7268 10.3985 40.7802 10.0718 41.7113 9.48376C42.1439 9.21305 42.2756 8.64365 42.0028 8.20493C41.7301 7.77554 41.1564 7.64485 40.7144 7.91556C40.0372 8.33561 39.36 8.54097 38.6265 8.54097C38.1562 8.54097 37.6577 8.45696 37.1122 8.26093C36.6232 8.08358 36.0965 8.33561 35.9178 8.821C35.7485 9.3064 35.993 9.83847 36.4821 10.0065Z" fill="#12305B"/>
<path d="M71.4876 23.355C71.4594 23.2057 71.3183 23.1123 71.1679 23.1403L66.7569 23.9524L67.641 20.536L67.34 20.4333L65.7506 24.1391L64.4715 24.3725C64.368 24.3911 64.274 24.4472 64.2081 24.5312L64.1987 24.5405L61.9885 27.2288H55.7248C55.5931 26.2114 55.5273 25.1659 55.5273 24.0831C55.5273 21.8615 55.8188 19.4905 56.4772 16.9422C56.7499 15.8687 56.7688 14.8419 56.8722 13.8805C56.9192 13.4231 56.9474 12.9657 56.9474 12.5083C56.9474 9.01716 55.5367 5.88076 53.2136 3.63114C50.9 1.37218 47.6835 0 44.0908 0C40.2441 0 36.9994 1.72689 34.7798 4.31256C33.2186 6.12346 32.1464 8.34508 31.6385 10.7067C30.2372 10.7627 29.0333 11.0894 28.0364 11.5748C26.3811 12.3776 25.2901 13.5818 24.6224 14.5712C23.9546 15.5607 23.6819 16.3448 23.663 16.4008L23.2586 17.6143H26.0143C26.2588 18.0623 26.6727 18.7064 27.3216 19.3692C27.8859 19.9479 28.6383 20.5266 29.5882 20.956C30.5381 21.3854 31.6949 21.6748 33.0399 21.6748C33.764 23.5697 34.7045 25.4366 35.8614 27.2195H18.4244C17.9166 27.2195 17.4933 27.6302 17.4933 28.1436C17.4933 28.6477 17.9072 29.0678 18.4244 29.0678H37.1687C38.1092 30.2999 39.1531 31.4667 40.3005 32.5589C44.9654 36.9741 51.4079 40.0172 59.3269 40.0172C59.6655 40.0172 59.9853 39.8305 60.1452 39.5318C60.305 39.2331 60.2956 38.869 60.1075 38.589C58.2641 35.7419 56.7782 32.6149 56.0446 29.0678H69.3433C69.8511 29.0678 70.2744 28.657 70.2744 28.1436C70.2744 27.6396 69.8605 27.2195 69.3433 27.2195H63.2488L64.8571 25.2686L71.2901 23.6724C71.4218 23.6257 71.5158 23.495 71.4876 23.355ZM26.0613 15.7567C26.2776 15.4113 26.5598 15.0286 26.9172 14.6552C27.4345 14.1138 28.0928 13.5818 28.9393 13.1897C29.6164 12.8723 30.4065 12.6483 31.3564 12.5643C31.3187 12.9657 31.2999 13.3671 31.2999 13.7684C31.2999 14.4405 31.3564 15.1033 31.4598 15.7567H26.0613ZM30.3782 19.2665C29.4095 18.8278 28.7324 18.1837 28.2621 17.6049H31.8454C32.0053 18.333 32.184 19.0518 32.4097 19.7799C31.6103 19.7145 30.9425 19.5279 30.3782 19.2665ZM33.3502 15.7567C33.228 15.1126 33.1621 14.4499 33.1621 13.7684C33.1621 10.7347 34.2719 7.729 36.1905 5.50738C38.1186 3.28576 40.8084 1.84824 44.0814 1.8389C47.185 1.8389 49.9313 3.02439 51.9064 4.93797C53.8814 6.86089 55.0758 9.50256 55.0758 12.4896C55.0758 12.8723 55.057 13.2644 55.01 13.6658C54.9348 14.4312 54.8972 15.1313 54.8031 15.766H33.623V15.7567H33.3502ZM41.589 31.196C37.5355 27.3689 34.8644 22.4122 33.7546 17.6143H39.8397C40.5263 23.2243 42.9904 28.5357 46.4138 32.5962C47.7964 34.2298 49.3294 35.6579 50.9753 36.8154C47.3073 35.6113 44.166 33.6323 41.589 31.196ZM53.3171 36.1433C50.3639 34.4071 47.6365 31.6254 45.558 28.265C43.5923 25.1006 42.2192 21.4134 41.7207 17.6236H47.0063C46.9969 17.829 46.9969 18.0437 46.9969 18.249C46.9969 22.1415 48.1443 26.7341 50.1664 30.776C51.1822 32.8016 52.4236 34.6778 53.872 36.2647C53.9849 36.386 54.0977 36.5074 54.2106 36.6194C53.9096 36.4794 53.6181 36.3207 53.3171 36.1433ZM55.2451 35.0325C53.2795 32.8949 51.6712 30.0292 50.5614 27.0328C49.4516 24.0364 48.8497 20.9094 48.8497 18.2584C48.8497 18.0437 48.8685 17.8383 48.8779 17.6329H54.3987C53.8908 19.8919 53.6651 22.0388 53.6651 24.0738C53.6651 28.769 54.8971 32.8669 56.7405 36.47C56.2233 36.0313 55.7248 35.5553 55.2451 35.0325Z" fill="#12305B"/>
<path d="M71.8356 24.9045C70.4343 25.2592 69.6537 24.6711 69.4185 23.7657C69.1928 22.8602 69.6066 21.9828 71.008 21.6374C72.4093 21.292 74.5067 22.5148 74.5067 22.5148C74.5067 22.5148 73.2464 24.5591 71.8356 24.9045Z" fill="#83CC1B"/>
<path d="M69.2587 20.6012C68.6849 21.8147 67.8009 22.0388 67.0108 21.6654C66.2208 21.3013 65.8164 20.4799 66.3901 19.2664C66.9638 18.0529 69.08 17.2688 69.08 17.2688C69.08 17.2688 69.8324 19.3877 69.2587 20.6012Z" fill="#83CC1B"/>
</g>
<defs>
<clipPath id="clip0_1_201">
<rect width="92" height="62" fill="white"/>
</clipPath>
</defs>
</svg>
